<svg width="40" height="40" viewBox="0 0 40 40" xmlns="http://www.w3.org/2000/svg" xmlns:xlink="http://www.w3.org/1999/xlink"><title>Group</title><desc>Created using Figma</desc><use xlink:href="#a" fill="#0073B8"/><use xlink:href="#b" transform="translate(16.18 14.592)" fill="#0073B8"/><use xlink:href="#c" transform="translate(19.56 22.768)" fill="#0073B8"/><use xlink:href="#d" transform="translate(12.79 6.415)" fill="#0073B8"/><use xlink:href="#e" transform="translate(21.44 5.157)" fill="#0073B8"/><use xlink:href="#f" transform="translate(27.84 19.874)" fill="#0073B8"/><use xlink:href="#g" transform="translate(30.97 27.17)" fill="#0073B8"/><use xlink:href="#h" transform="translate(32.35 11.698)" fill="#0073B8"/><use xlink:href="#i" transform="translate(29.34 4.528)" fill="#0073B8"/><use xlink:href="#j" transform="translate(35.49 18.742)" fill="#0073B8"/><use xlink:href="#k" transform="translate(24.83 12.327)" fill="#0073B8"/><defs><path id="a" fill-rule="evenodd" d="M19.813 0c3.134 0 6.144.755 8.777 2.013.376.25.877.377 1.254.63l-1.88 1.634-2.76-2.893-4.64 4.15-2.758-3.018-8.65 7.8 5.516 6.162-2.132 1.887 5.517 6.163-2.13 1.887 7.898 8.805 4.64-4.277 4.012 4.654c-.753.63-1.63 1.258-2.633 1.76-2.884 1.637-6.27 2.643-9.906 2.643C8.904 40 0 30.943 0 20-.123 9.057 8.78 0 19.814 0z"/><path id="b" fill-rule="evenodd" d="M0 4.277L4.765 0l4.263 4.78-4.765 4.277L0 4.277z"/><path id="c" fill-rule="evenodd" d="M0 4.277L4.765 0l4.263 4.78-4.765 4.277L0 4.277z"/><path id="d" fill-rule="evenodd" d="M0 4.277L4.765 0l4.263 4.78-4.765 4.277L0 4.277z"/><path id="e" fill-rule="evenodd" d="M0 3.27L3.636 0 6.77 3.648 3.26 6.792 0 3.27z"/><path id="f" fill-rule="evenodd" d="M0 3.27L3.51 0l3.26 3.648-3.51 3.144L0 3.27z"/><path id="g" fill-rule="evenodd" d="M0 3.145L3.51 0l3.26 3.522-3.51 3.27L0 3.145z"/><path id="h" fill-rule="evenodd" d="M0 2.138L2.382 0l2.132 2.39-2.257 2.138L0 2.138z"/><path id="i" fill-rule="evenodd" d="M0 2.138L2.382 0l2.132 2.39-2.382 2.138L0 2.138z"/><path id="j" fill-rule="evenodd" d="M0 2.138L2.382 0l2.132 2.39-2.382 2.138L0 2.138z"/><path id="k" fill-rule="evenodd" d="M0 3.27L3.51 0l3.26 3.648-3.635 3.144L0 3.27z"/></defs></svg>