<svg width="40" height="32" viewBox="0 0 40 32" xmlns="http://www.w3.org/2000/svg" xmlns:xlink="http://www.w3.org/1999/xlink"><title>Group</title><desc>Created using Figma</desc><use xlink:href="#a" fill="#003267"/><use xlink:href="#b" transform="translate(28 23)" fill="#01BDEA"/><use xlink:href="#b" transform="translate(31 23)" fill="#E75300"/><defs><path id="a" fill-rule="evenodd" d="M0 4c0-2.21 1.79-4 4-4h32c2.21 0 4 1.79 4 4v24c0 2.21-1.79 4-4 4H4c-2.21 0-4-1.79-4-4V4zm4-2h32c1.105 0 2 .895 2 2v5H2V4c0-1.105.896-2 2-2zM2 14v14c0 1.105.896 2 2 2h32c1.105 0 2-.895 2-2V14H2z"/><path id="b" d="M4 2c0 1.105-.895 2-2 2s-2-.895-2-2 .895-2 2-2 2 .895 2 2z"/></defs></svg>