<svg width="16" height="34" viewBox="0 0 16 34" xmlns="http://www.w3.org/2000/svg" xmlns:xlink="http://www.w3.org/1999/xlink"><title>female</title><desc>Created using Figma</desc><use xlink:href="#a" fill="#003267" fill-opacity=".24"/><defs><path id="a" d="M8 0c.943 0 1.847.358 2.514.996.667.637 1.042 1.502 1.042 2.404 0 .902-.375 1.767-1.042 2.404-.667.638-1.57.996-2.514.996-.943 0-1.847-.358-2.514-.996C4.82 5.167 4.444 4.302 4.444 3.4c0-.902.375-1.767 1.042-2.404C6.153.358 7.056 0 8 0zM5.333 34V23.8H0l4.604-12.903C5.05 9.503 6.4 8.5 8 8.5c1.6 0 2.95 1.003 3.396 2.397L16 23.8h-5.333V34H5.333z"/></defs></svg>