<svg width="40" height="40" viewBox="0 0 40 40" xmlns="http://www.w3.org/2000/svg" xmlns:xlink="http://www.w3.org/1999/xlink"><title>Group</title><desc>Created using Figma</desc><g><use xlink:href="#a"/><use xlink:href="#b"/></g><defs><path id="a" d="M25.622 24.012c1.718-.26 3.096.424 4.343 1.46.86.705 1.696 1.447 2.555 2.165.647.54 1.342.824 2.225.6.765-.2 1.212.306 1.012 1.095-.572 2.204-2.825 5.145-5.238 5.367-.15 2.513-1.052 4.37-3.733 4.908C17.61 41.443 3.15 36.793.642 26.638-.86 20.524.318 13.47 3.702 8.167c.354-.54.754-1.047 1.143-1.588-.812-.812-1.248-1.73-.954-2.908C4.633.727 7.714.85 9.708 2.295c.317.224.553.26.906.106 1.6-.682 3.284-1.023 5.026-1.035.604 0 1.083.214 1.553-.294 1.728-1.922 5.1-.026 3.885 2.485-.106.223-.26.435-.412.682 1.266 1.468 2.46 2.934 3.39 4.65 1.26 2.296-.59 4.025-1.377 6.06.267.216.535-.045.81-.2.86-.458 1.732-.74 2.697-.352 1.165.46 1.542 1.448 1.612 2.578.13 2.056-.795 3.973-2.084 5.52-.59.67-.59.67-.094 1.52zM15.18 18.397c-.223-.01-.317-.01-.423-.023-2.595-.123-6.604-1.216-6.793-4.426.294-.118.546.37.707.6.907 1.32 2.096 2.225 3.673 2.52 1.236.235 2.46.058 3.66-.248.85-.212 1.673-.47 2.662-.753-.683-.342-1.354-.342-1.684-1.12.378.037.66.072.943.096.8.06 1.6.176 2.39.153.624-.024 1.224-.26 1.412-1-1.08-.11-2.772-1.595-.824-1.92.613-.094 1.214-.152 1.92-.235.047-.21.13-.54.212-.858-1.27-.518-2.307-1.73-2.543-3.013-.06-.33-.024-.802.164-1.014.14-.153.624.024.965.06.07.01.13.046.2.082.047-.06.094-.118.14-.165-1.424-1.33-2.824-2.672-4.284-3.967-.294-.26-.79-.412-1.2-.412-1.084-.01-2.202-.047-3.261.142-2.143.388-4.038 1.247-5.086 3.342-.083.177-.236.318-.32.495-.258.553-.717.73-1.258.588-.436-.105-.636.084-.87.39-1.838 2.39-2.885 5.132-3.545 8.04-.388 1.552 4.18 3.61 5.215 4 2.837 1.072 5.392.578 7.828-1.353zm.93 11.04c.518.2.966.342 1.39.53 1.232.577 10.715 3.402 10.653.648-.024-.953-.448-1.683-1.107-2.32-1.46-1.4-2.672-2.965-3.484-4.825-.165-.365-.342-.73-.554-1.177-1.46 3.225-3.743 5.556-6.898 7.145zM2.68 27.862c1.353 2.93 3.59 4.932 6.544 6.416-.2-1.378.412-2.355 1.142-3.367-3.108.152-5.674-.766-7.687-3.05zM40 0c-2.39 3.45-4.673 6.768-6.992 10.11-.977-.705-1.92-1.376-2.896-2.083-.506.4-1 .8-1.566 1.248-.247-1.036-.447-1.977-.694-2.92-.07-.27-.26-.552-.483-.74-.566-.483-1.166-.92-1.884-1.46C30.36 2.765 35.103 1.4 40 0zm-7.534 8.85C34.61 6.18 36.704 3.567 38.8.966l-.083-.082c-3.343 1.86-6.686 3.707-10.03 5.567v1.942c.024.012.06.012.083.024.165-.542.33-1.083.494-1.672 1.095.707 2.12 1.378 3.202 2.107z"/><path id="b" d="M17.547 9.228c-.107 1.177-.4 2.295-1.26 3.19-.483.506-1.06.777-1.79.588-1.082-.282-1.54-1.06-1.177-2.13.412-1.236 1.225-2.166 2.284-2.884 1.095-.74 1.73-.447 1.92.87.01.12.01.237.023.366z"/></defs></svg>