<svg width="18" height="18" viewBox="0 0 18 18" xmlns="http://www.w3.org/2000/svg" xmlns:xlink="http://www.w3.org/1999/xlink"><title>Vector</title><desc>Created using Figma</desc><g><use xlink:href="#a" fill="#003267"/><use xlink:href="#a" fill="#01BDEA" fill-opacity=".48"/></g><defs><path id="a" d="M11 14H4v-2h7v2zm3-4H4V8h10v2zm0-4H4V4h10v2zm2-6H2C.89 0 0 .89 0 2v14c0 .53.21 1.04.586 1.414C.96 17.79 1.47 18 2 18h14c.53 0 1.04-.21 1.414-.586C17.79 17.04 18 16.53 18 16V2c0-1.11-.9-2-2-2z"/></defs></svg>