<svg width="12" height="34" viewBox="0 0 12 34" xmlns="http://www.w3.org/2000/svg" xmlns:xlink="http://www.w3.org/1999/xlink"><title>male_secelt</title><desc>Created using Figma</desc><use xlink:href="#a" fill="#003267" fill-opacity=".8"/><defs><path id="a" d="M6 0c.91 0 1.78.358 2.424.996.643.637 1.005 1.502 1.005 2.404 0 .902-.363 1.767-1.006 2.404C7.78 6.442 6.91 6.8 6 6.8c-.91 0-1.78-.358-2.424-.996C2.933 5.167 2.57 4.302 2.57 3.4c0-.902.363-1.767 1.006-2.404C4.22.358 5.09 0 6 0zM3.43 8.5h5.14c.91 0 1.783.358 2.426.996C11.64 10.133 12 10.998 12 11.9v9.35H9.43V34H2.57V21.25H0V11.9c0-.902.36-1.767 1.004-2.404C1.647 8.858 2.52 8.5 3.43 8.5z"/></defs></svg>