<svg width="21" height="18" viewBox="0 0 21 18" xmlns="http://www.w3.org/2000/svg" xmlns:xlink="http://www.w3.org/1999/xlink"><title>Vector</title><desc>Created using Figma</desc><g><use xlink:href="#a" fill="#003267"/><use xlink:href="#a" fill="#01BDEA" fill-opacity=".24"/></g><defs><path id="a" d="M2.286 6.75L4 1.687h12.57l1.716 5.063h-16zm14.285 5.625c-.453 0-.89-.178-1.21-.494-.322-.316-.503-.745-.503-1.193 0-.447.18-.876.502-1.193.32-.316.757-.494 1.21-.494.456 0 .892.178 1.214.494.32.317.502.746.502 1.194 0 .447-.18.876-.502 1.193-.322.317-.758.495-1.213.495zm-12.57 0c-.455 0-.89-.178-1.212-.494-.322-.316-.502-.745-.502-1.193 0-.447.18-.876.502-1.193C3.108 9.178 3.545 9 4 9c.455 0 .89.178 1.212.494.322.317.502.746.502 1.194 0 .447-.18.876-.502 1.193-.32.317-.757.495-1.212.495zm14.194-11.25C17.966.472 17.326 0 16.57 0H4c-.754 0-1.394.472-1.623 1.125L0 7.875v9c0 .298.12.584.335.796.214.21.505.33.808.33h1.143c.303 0 .594-.12.808-.33.214-.21.335-.497.335-.795V15.75h13.713v1.125c0 .298.12.584.335.796.214.21.505.33.808.33h1.143c.302 0 .592-.12.807-.33.214-.21.334-.497.334-.795v-9l-2.376-6.75z"/></defs></svg>